name Walk4.mot
datacolumns 19
datarows 10
range 4.23500000 4.28000000
endheader

                time	   L_ground_force_vx	   L_ground_force_vy	   L_ground_force_vz	   L_ground_force_px	   L_ground_force_py	   L_ground_force_pz	   R_ground_force_vx	   R_ground_force_vy	   R_ground_force_vz	   R_ground_force_px	   R_ground_force_py	   R_ground_force_pz	   L_ground_torque_x	   L_ground_torque_y	   L_ground_torque_z	   R_ground_torque_x	   R_ground_torque_y	   R_ground_torque_z	
          4.23500000	          0.01297592	          0.06641119	          0.00472141	         -0.00019018	          0.00000000	         -0.00003344	         -6.25731907	        876.23949466	        -62.78656167	          0.25248851	          0.00000000	          0.17098784	          0.00000000	          0.00011896	          0.00000000	          0.00000000	          9.53732742	          0.00000000	
          4.24000000	          0.00525406	          0.04027863	          0.00371079	         -0.00015873	          0.00000000	         -0.00002903	         -4.80777786	        879.31200654	        -62.48619583	          0.25333364	          0.00000000	          0.17097249	          0.00000000	          0.00011733	          0.00000000	          0.00000000	          9.29596954	          0.00000000	
          4.24500000	         -0.00011334	          0.02033478	          0.00276922	         -0.00012600	          0.00000000	         -0.00002391	         -3.32055295	        882.92005767	        -62.37267112	          0.25419196	          0.00000000	          0.17094807	          0.00000000	          0.00010700	          0.00000000	          0.00000000	          9.05751720	          0.00000000	
          4.25000000	         -0.00354640	          0.00593694	          0.00194640	         -0.00009505	          0.00000000	         -0.00001873	         -1.79190645	        886.97915742	        -62.44584396	          0.25506618	          0.00000000	          0.17091910	          0.00000000	          0.00009192	          0.00000000	          0.00000000	          8.81981305	          0.00000000	
          4.25500000	         -0.00546747	         -0.00376566	          0.00126480	         -0.00006769	          0.00000000	         -0.00001393	         -0.22157023	        891.39392438	        -62.69507776	          0.25595849	          0.00000000	          0.17088982	          0.00000000	          0.00007497	          0.00000000	          0.00000000	          8.58082895	          0.00000000	
          4.26000000	         -0.00626700	         -0.00968993	          0.00072768	         -0.00004478	          0.00000000	         -0.00000975	          1.38799857	        896.06231709	        -63.10091018	          0.25687000	          0.00000000	          0.17086391	          0.00000000	          0.00005818	          0.00000000	          0.00000000	          8.33883753	          0.00000000	
          4.26500000	         -0.00628409	         -0.01272270	          0.00032568	         -0.00002655	          0.00000000	         -0.00000630	          3.03162563	        900.87961453	        -63.63768271	          0.25780213	          0.00000000	          0.17084449	          0.00000000	          0.00004281	          0.00000000	          0.00000000	          8.09237543	          0.00000000	
          4.27000000	         -0.00579805	         -0.01366134	          0.00004213	         -0.00001276	          0.00000000	         -0.00000359	          4.70220374	        905.74085572	        -64.27735585	          0.25875752	          0.00000000	          0.17083414	          0.00000000	          0.00002956	          0.00000000	          0.00000000	          7.83999713	          0.00000000	
          4.27500000	         -0.00502780	         -0.01318282	         -0.00014304	         -0.00000291	          0.00000000	         -0.00000156	          6.39116492	        910.54621526	        -64.99119967	          0.25974034	          0.00000000	          0.17083472	          0.00000000	          0.00001873	          0.00000000	          0.00000000	          7.58020890	          0.00000000	
          4.28000000	         -0.00413622	         -0.01183336	         -0.00025047	          0.00000364	          0.00000000	         -0.00000014	          8.08857907	        915.20879547	        -65.75212496	          0.26075542	          0.00000000	          0.17084794	          0.00000000	          0.00001031	          0.00000000	          0.00000000	          7.31179580	          0.00000000	
